<?xml version="1.0" standalone="no"?>
<!DOCTYPE svg PUBLIC "-//W3C//DTD SVG 20010904//EN"
 "http://www.w3.org/TR/2001/REC-SVG-20010904/DTD/svg10.dtd">
<svg version="1.0" xmlns="http://www.w3.org/2000/svg"
 width="584.000000pt" height="584.000000pt" viewBox="0 0 584.000000 584.000000"
 preserveAspectRatio="xMidYMid meet">
<metadata>
Created by potrace 1.11, written by Peter Selinger 2001-2013
</metadata>
<g transform="translate(0.000000,584.000000) scale(0.100000,-0.100000)"
fill="#000000" stroke="none">
<path d="M2027 5813 c-3 -16 -4 -185 -4 -376 1 -222 -2 -352 -8 -357 -5 -4
-50 -24 -100 -45 -201 -82 -424 -214 -595 -350 -85 -68 -291 -270 -366 -360
-48 -57 -145 -188 -171 -230 -7 -11 -30 -50 -52 -86 -74 -122 -188 -368 -217
-469 -49 -173 -73 -262 -77 -295 -3 -22 -8 -47 -11 -55 -3 -8 -8 -33 -10 -55
-3 -22 -8 -65 -13 -95 -10 -71 -10 -489 1 -560 29 -192 26 -180 39 -230 4 -14
9 -36 11 -50 17 -99 111 -359 183 -505 259 -529 739 -975 1303 -1211 64 -26
221 -82 250 -89 8 -2 42 -10 75 -19 119 -30 243 -53 345 -61 121 -11 142 -13
147 -18 2 -3 4 -71 4 -151 l-1 -146 148 0 149 0 0 145 c0 80 2 148 5 151 6 5
24 8 132 19 107 10 328 52 406 75 19 6 44 13 54 15 116 26 424 157 556 237
198 121 362 249 525 413 140 139 144 144 252 290 67 89 216 331 219 354 0 3
13 33 28 66 16 33 34 74 42 91 20 47 85 245 91 279 3 17 8 37 13 45 4 8 10 31
14 50 3 19 9 46 12 60 3 14 7 34 8 45 1 11 6 38 10 60 32 183 38 482 11 665
-3 19 -7 53 -10 75 -4 36 -13 83 -19 110 -2 6 -6 28 -10 50 -10 53 -41 160
-76 265 -133 394 -387 774 -710 1060 -40 36 -79 71 -86 78 -7 6 -15 12 -18 12
-5 0 -32 20 -60 45 -16 15 -173 118 -226 148 -47 28 -162 84 -317 157 l-93 43
0 364 c0 339 -1 363 -17 364 -10 0 -31 2 -46 3 -17 1 -31 -4 -36 -14 -4 -8 -7
-167 -6 -353 l0 -338 -25 6 c-14 4 -36 12 -50 18 l-25 12 -1 328 c-1 180 -4
330 -8 334 -8 9 -85 7 -94 -1 -4 -4 -7 -114 -8 -244 -1 -130 -3 -272 -3 -314
l-1 -77 -27 6 c-16 3 -32 6 -38 7 -31 5 -32 19 -31 317 1 193 -3 303 -9 305
-23 9 -74 11 -86 4 -9 -6 -13 -81 -15 -297 -1 -158 -3 -293 -3 -299 -1 -14
-80 -1 -90 14 -3 6 -6 139 -5 296 0 282 0 286 -20 287 -12 0 -31 2 -44 3 -12
2 -26 -2 -31 -8 -5 -6 -10 -115 -10 -241 0 -127 0 -255 0 -286 l-1 -56 -32 4
c-81 10 -73 -22 -73 295 l0 282 -24 6 c-14 3 -38 4 -56 2 l-30 -4 0 -289 c0
-252 -2 -289 -15 -290 -8 -1 -31 -2 -50 -3 l-35 -1 -1 290 -1 290 -43 6 c-26
3 -46 1 -53 -6 -9 -8 -12 -93 -11 -294 0 -155 -3 -284 -7 -287 -5 -3 -28 -7
-52 -9 l-43 -5 -1 303 0 302 -51 3 c-50 3 -52 2 -52 -22 -1 -15 -1 -155 -1
-312 0 -209 -4 -286 -12 -289 -7 -2 -30 -6 -52 -7 l-39 -3 -1 315 0 315 -53 3
-52 3 -1 -33 c0 -18 0 -94 0 -168 0 -119 0 -156 1 -245 0 -11 -1 -40 -1 -65 0
-25 0 -52 0 -60 3 -44 0 -94 -4 -99 -6 -6 -17 -9 -61 -17 l-31 -6 -2 144 c-2
78 -3 234 -4 346 l-1 202 -52 0 c-49 0 -53 -2 -57 -27z m734 -660 c0 -5 2 -15
4 -23 10 -51 9 -65 -5 -66 -8 0 -38 -4 -67 -8 l-52 -8 4 -46 c3 -26 7 -58 10
-72 3 -14 7 -45 10 -70 12 -103 17 -136 21 -151 6 -22 -14 -36 -62 -43 -29 -5
-41 -3 -41 6 0 22 -14 148 -19 171 -6 30 -16 106 -19 138 -3 43 -11 48 -68 43
-28 -3 -58 -7 -64 -9 -8 -3 -13 5 -14 20 -1 14 -2 31 -3 38 -1 6 2 17 6 23 8
11 26 15 138 30 19 3 42 7 50 9 8 3 42 7 75 10 33 4 62 8 64 11 7 7 31 5 32
-3z m404 -9 c27 -3 59 -10 71 -15 12 -4 24 -6 26 -4 2 2 33 -11 68 -28 106
-52 142 -128 117 -245 -16 -76 -57 -128 -125 -159 -38 -17 -206 -23 -262 -10
-14 3 -36 6 -48 6 -28 1 -28 0 8 251 6 41 14 89 17 105 3 17 5 38 5 48 -1 10
3 30 9 44 7 20 14 24 37 19 15 -3 49 -8 77 -12z m-1033 -145 l36 -9 -15 -48
c-15 -45 -17 -47 -52 -46 -56 0 -88 -14 -96 -43 -11 -45 12 -57 117 -58 124
-1 147 -16 168 -103 17 -69 -29 -144 -105 -176 -47 -20 -118 -30 -159 -22 -36
7 -37 10 -16 61 5 11 11 27 13 37 5 13 14 15 46 11 54 -7 97 12 110 48 16 45
-18 62 -109 56 -114 -7 -182 40 -179 125 2 50 11 75 43 108 56 60 121 80 198
59z m1841 -72 c121 -56 170 -153 144 -287 -6 -30 -40 -90 -65 -116 -114 -115
-338 -73 -421 79 -67 121 -2 293 130 340 59 21 145 15 212 -16z m-2352 -196
c3 0 16 -9 27 -20 30 -25 50 -79 45 -118 -4 -31 -3 -32 30 -26 35 5 83 -13
106 -41 21 -25 30 -85 19 -119 -15 -45 -46 -76 -148 -146 l-88 -61 -33 42
c-58 72 -94 113 -101 116 -5 2 -8 9 -8 15 0 7 -10 23 -23 37 -12 14 -46 56
-75 95 -46 62 -50 70 -35 79 20 11 33 21 66 51 87 78 157 109 218 96z m2877
-139 c99 -82 113 -96 133 -129 27 -43 27 -107 2 -142 -39 -52 -113 -77 -169
-58 -19 7 -23 2 -34 -40 -16 -63 -19 -80 -25 -127 -3 -22 -7 -41 -9 -43 -5 -5
-84 60 -90 74 -2 6 2 37 11 70 8 32 17 66 18 76 2 9 7 22 10 28 10 15 -3 59
-17 59 -6 0 -39 -30 -72 -66 l-61 -65 -38 31 c-21 18 -37 36 -35 40 2 5 44 52
93 106 90 97 107 115 178 193 21 22 40 41 43 41 3 0 31 -21 62 -48z m-1276
-20 c4 -4 -25 -27 -66 -50 l-74 -42 -1 -260 c0 -143 4 -260 7 -260 4 0 63 32
131 70 68 39 125 70 126 70 1 0 40 22 86 48 157 90 279 152 280 142 1 -5 2
-42 3 -81 1 -59 -2 -73 -19 -89 -24 -22 -478 -280 -494 -280 -6 0 -11 -4 -11
-9 0 -5 -22 -18 -50 -30 l-50 -22 0 -264 c0 -146 3 -265 6 -265 4 0 32 15 63
34 31 19 72 43 91 53 19 11 62 35 95 53 33 18 91 50 128 71 38 22 73 39 77 39
5 0 10 3 12 8 5 12 150 84 156 77 3 -3 5 -39 4 -81 -1 -69 -12 -104 -32 -104
-14 0 -584 -321 -595 -334 -6 -8 -9 -109 -7 -270 l3 -257 107 57 c59 31 163
88 232 127 234 131 290 159 291 145 1 -21 1 -142 0 -153 -1 -6 -18 -19 -38
-30 -37 -19 -202 -111 -253 -140 -14 -8 -96 -54 -182 -101 l-158 -87 0 -264
c0 -144 3 -263 6 -263 7 0 222 112 259 135 11 7 45 26 75 43 30 16 107 59 170
95 63 36 116 63 118 62 2 -2 4 -40 5 -86 l1 -82 -185 -105 c-101 -58 -242
-137 -314 -176 l-130 -72 -3 -262 c-2 -213 0 -262 11 -262 7 0 67 27 133 59
65 33 207 94 314 136 107 43 213 87 235 99 l41 21 -1 1468 c0 1208 2 1466 13
1462 37 -14 162 -94 249 -158 162 -121 302 -272 410 -442 51 -81 153 -286 153
-309 0 -7 4 -16 9 -21 13 -16 70 -203 87 -290 27 -139 36 -349 21 -515 -6 -69
-9 -93 -22 -160 -3 -14 -8 -38 -11 -55 -25 -146 -119 -386 -210 -538 -90 -149
-249 -336 -374 -438 -23 -19 -52 -43 -63 -53 -46 -40 -246 -166 -332 -209
-183 -91 -428 -166 -600 -183 -17 -1 -35 -3 -40 -4 -30 -6 -34 2 -32 55 3 49
1 55 -17 55 -11 0 -27 -6 -35 -14 -9 -8 -25 -16 -35 -18 -18 -3 -19 6 -18 252
0 140 1 260 1 266 1 6 22 21 47 34 25 13 47 27 50 32 4 7 8 136 5 161 -1 4
-23 -4 -51 -18 -34 -17 -50 -21 -51 -13 -1 17 -1 478 0 500 1 9 25 29 54 46
l52 29 -2 78 c-2 43 -5 81 -9 84 -3 3 -23 -5 -46 -17 -22 -13 -42 -21 -46 -18
-7 7 -9 505 -2 515 3 4 26 20 53 35 50 30 50 30 49 124 -1 73 -5 77 -57 47
l-45 -27 -1 24 c-1 29 -1 466 0 494 1 14 14 27 41 39 22 10 45 24 51 31 12 14
16 151 5 161 -3 4 -24 -4 -46 -16 -22 -12 -43 -20 -47 -18 -6 4 -9 384 -4 503
1 13 19 32 51 53 51 33 55 41 50 113 l-1 28 67 -5 c37 -2 71 -8 76 -13z m-452
-44 l0 -53 52 -30 52 -30 -1 -258 c0 -142 -4 -261 -7 -265 -4 -4 -25 3 -46 16
-21 12 -41 22 -44 22 -4 0 -6 -38 -6 -85 l0 -84 48 -27 c26 -15 49 -29 52 -31
2 -2 4 -121 5 -263 0 -206 -3 -260 -13 -260 -7 0 -31 9 -53 20 l-40 21 3 -87
3 -87 40 -24 c22 -13 45 -26 50 -28 10 -5 13 -521 2 -531 -3 -3 -23 4 -46 15
-22 12 -43 21 -46 21 -3 0 -5 -37 -5 -83 0 -81 1 -84 28 -97 15 -8 38 -22 52
-31 l25 -17 -1 -256 c0 -141 -4 -259 -7 -263 -4 -3 -25 3 -46 15 -21 12 -41
22 -45 22 -3 0 -6 -38 -6 -85 l0 -85 40 -25 c22 -14 44 -25 50 -25 13 0 12 11
10 -230 -2 -256 -4 -297 -12 -305 -3 -4 -27 5 -52 20 l-46 27 1 -49 c2 -54 -5
-74 -24 -68 -7 2 -36 7 -65 10 -30 3 -84 12 -120 21 -37 8 -74 17 -82 19 -57
12 -80 19 -120 32 -229 78 -397 166 -570 296 -101 77 -262 230 -326 312 -21
28 -41 52 -44 55 -16 15 -113 176 -147 245 -55 109 -86 191 -122 315 -55 193
-66 280 -65 505 0 246 20 377 88 580 95 283 286 560 531 771 70 60 135 110
167 129 9 6 48 29 87 52 58 34 71 39 72 25 1 -9 2 -668 3 -1464 0 -795 3
-1449 6 -1451 11 -11 151 -78 225 -107 44 -17 94 -38 110 -45 17 -8 77 -33
135 -56 58 -24 139 -60 180 -80 41 -20 77 -35 79 -33 1 1 3 118 3 259 0 248
-4 285 -32 285 -4 0 -40 19 -79 43 -94 55 -77 46 -309 175 -111 63 -205 118
-208 124 -7 11 -6 159 0 166 5 4 151 -75 424 -230 106 -61 196 -108 199 -105
7 7 6 504 -1 516 -6 9 -175 111 -266 160 -25 13 -63 34 -85 47 -22 13 -91 51
-154 86 -62 35 -116 71 -120 80 -3 9 -5 50 -3 92 4 75 4 75 25 62 12 -7 56
-31 97 -54 126 -67 195 -105 205 -112 6 -4 30 -19 55 -32 25 -14 90 -51 144
-82 54 -31 101 -54 103 -52 6 5 7 516 1 521 -7 6 -210 125 -214 125 -3 0 -52
27 -111 60 -58 33 -107 60 -108 60 -2 0 -45 25 -96 55 -92 54 -94 56 -99 98
-3 23 -3 63 -2 89 l4 48 101 -54 c114 -60 172 -91 267 -146 65 -37 181 -101
229 -126 14 -7 26 -12 28 -10 3 3 6 386 4 477 -1 35 -5 39 -73 80 -40 24 -89
52 -108 62 -19 11 -48 27 -65 37 -16 10 -48 28 -70 40 -78 44 -121 68 -175 99
-30 18 -74 41 -97 53 -46 24 -44 17 -44 138 0 28 0 52 0 56 1 3 25 -8 54 -24
28 -16 79 -44 112 -62 33 -18 77 -44 97 -57 21 -13 40 -23 43 -23 3 0 22 -11
43 -23 20 -13 73 -43 117 -67 44 -23 99 -53 123 -66 27 -16 42 -19 43 -11 3
78 -1 509 -5 516 -4 5 -35 26 -71 46 -90 50 -87 57 33 63 l52 2 0 -52z m-1561
-250 c105 -24 188 -119 196 -225 6 -96 -62 -205 -159 -256 -53 -27 -156 -30
-206 -4 -66 32 -136 117 -147 177 -22 120 55 257 169 302 52 20 81 22 147 6z
m3711 -146 c32 -48 107 -154 118 -168 11 -12 32 -51 32 -58 0 -6 -65 -46 -77
-46 -5 0 -35 38 -67 84 l-57 85 -29 -17 c-16 -9 -32 -23 -35 -30 -3 -8 15 -45
40 -83 25 -38 45 -74 45 -78 0 -9 -61 -51 -73 -51 -3 0 -27 32 -53 71 -25 39
-53 73 -60 76 -7 2 -44 -16 -83 -40 -76 -50 -74 -50 -113 14 l-17 26 137 86
c75 48 164 105 197 127 33 22 62 40 65 40 3 0 16 -17 30 -38z m-4058 -460 c32
-18 63 -76 54 -99 -5 -13 0 -15 36 -10 51 7 78 12 136 28 23 6 46 9 49 5 4 -4
-1 -31 -11 -60 l-18 -53 -97 -17 c-97 -18 -121 -28 -121 -52 0 -11 119 -57
152 -59 17 -1 19 -17 8 -52 -22 -67 1 -67 -235 8 -71 22 -137 42 -146 44 -50
10 -98 29 -93 37 3 5 17 50 30 101 36 133 67 180 134 200 26 8 93 -4 122 -21z
m4367 -151 c55 -175 55 -172 3 -187 -42 -13 -43 -13 -53 14 -6 15 -12 32 -13
37 -1 6 -4 15 -7 20 -7 11 -20 64 -17 67 1 2 -4 13 -11 26 -10 20 -17 22 -44
17 -18 -4 -36 -11 -40 -15 -5 -4 5 -46 21 -94 33 -95 31 -100 -30 -111 l-36
-7 -16 55 c-9 30 -16 58 -16 61 0 4 -6 22 -14 40 -14 34 -15 34 -50 22 -20 -7
-38 -15 -41 -18 -3 -2 8 -49 25 -103 16 -53 30 -102 30 -107 0 -9 -60 -38 -80
-38 -13 0 -23 23 -51 120 -12 41 -29 98 -39 127 -10 28 -15 55 -11 60 5 7 151
59 196 70 6 1 60 18 120 37 61 19 115 35 122 35 6 1 29 -55 52 -128z m-4499
-421 c42 -23 60 -68 60 -157 0 -72 2 -83 18 -84 9 -1 49 -3 87 -5 39 -1 72 -3
75 -3 3 -1 5 -24 5 -52 l0 -50 -195 6 c-176 6 -264 10 -281 14 -3 0 -5 52 -3
114 3 154 27 210 99 230 29 8 110 0 135 -13z m4617 -101 c4 -100 4 -195 -1
-218 -14 -65 -74 -104 -150 -97 -54 5 -79 18 -106 56 l-21 30 -42 -28 c-59
-40 -138 -84 -142 -80 -7 7 -8 105 -1 116 4 6 45 33 92 59 68 38 84 51 82 68
-3 18 -10 20 -88 21 -47 1 -90 2 -96 3 -8 1 -10 89 -1 97 1 2 90 5 196 8 107
4 196 8 197 9 2 2 20 2 41 2 38 -2 38 -2 40 -46z m-227 -565 c73 -44 71 -162
-3 -199 -83 -41 -180 21 -173 111 6 85 100 132 176 88z m-4266 -19 c74 -49 55
-173 -32 -202 -56 -20 -121 -1 -144 40 -25 45 -28 86 -9 121 34 60 125 80 185
41z m3955 -364 c21 -11 30 -21 22 -25 -6 -4 -21 -28 -32 -54 -12 -26 -23 -50
-25 -53 -2 -4 69 -44 159 -89 89 -45 166 -86 170 -90 10 -9 -29 -90 -42 -90
-5 0 -81 35 -168 78 -87 42 -161 78 -165 80 -4 2 -21 -24 -38 -57 l-30 -61
-38 15 c-20 9 -40 19 -45 24 -4 4 22 63 57 132 36 68 75 143 87 167 24 47 37
50 88 23z m-3684 -39 c50 -36 85 -101 92 -169 6 -59 4 -61 -57 -39 -19 7 -35
17 -35 22 -5 84 -62 146 -101 107 -13 -14 -15 -31 -9 -107 l6 -91 -33 -38
c-46 -52 -117 -67 -178 -37 -68 34 -103 97 -104 187 -1 34 2 65 6 69 4 4 28
-1 52 -10 43 -16 45 -19 43 -54 -3 -75 34 -122 84 -107 20 7 21 11 15 104 -5
69 -3 103 6 121 21 39 70 66 125 69 40 1 56 -3 88 -27z m3393 -409 c44 -44
220 -204 252 -229 78 -64 75 -57 40 -98 -18 -20 -36 -36 -41 -36 -5 0 -24 15
-43 33 -18 17 -50 47 -69 66 l-36 34 -65 -66 c-36 -36 -66 -71 -66 -76 0 -6
31 -40 69 -77 l69 -67 -29 -31 c-16 -17 -29 -35 -29 -40 0 -9 -42 16 -69 42
-9 9 -55 51 -101 92 -46 41 -109 98 -139 127 l-56 52 36 37 37 36 61 -56 c33
-31 62 -56 64 -56 1 0 33 31 71 69 l69 70 -63 59 -63 60 34 36 c39 41 43 42
67 19z m-3033 -109 l27 -35 -92 -187 c-50 -103 -101 -207 -113 -230 l-21 -44
-42 46 c-43 47 -48 72 -18 97 31 26 10 66 -95 181 -4 4 -30 -1 -58 -12 l-51
-19 -36 42 c-20 23 -36 44 -36 47 0 3 60 23 133 45 72 22 182 56 242 76 61 20
115 34 122 32 7 -3 24 -20 38 -39z m2629 -318 c-22 -71 -30 -82 -69 -84 -54
-4 -87 -24 -111 -69 -51 -93 15 -207 127 -219 54 -5 105 23 121 66 5 17 15 30
21 31 22 2 82 -3 89 -7 12 -8 -16 -75 -48 -113 -86 -100 -252 -107 -355 -16
-83 74 -110 196 -64 287 27 54 47 75 98 107 48 29 80 38 145 38 48 -1 52 -2
46 -21z m-2202 -22 l30 -16 -6 -68 c-4 -37 -8 -76 -10 -86 -2 -11 -7 -46 -12
-79 -4 -33 -8 -62 -9 -65 -3 -9 -20 -155 -24 -195 -1 -13 -6 -12 -36 2 -19 9
-35 20 -35 24 0 4 -8 9 -19 12 -16 4 -18 10 -10 48 4 24 8 49 9 54 0 15 -140
101 -159 97 -8 -2 -28 -15 -44 -28 -36 -30 -38 -30 -93 2 -43 25 -44 27 -27
43 10 9 25 20 33 23 12 5 176 119 215 150 64 51 134 97 148 97 10 1 32 -6 49
-15z m446 -199 c84 -24 155 -45 158 -48 10 -9 -16 -87 -29 -87 -7 1 -30 7 -52
15 -68 25 -69 24 -104 -86 -18 -55 -34 -106 -35 -112 -1 -7 -5 -23 -9 -37 -33
-112 -30 -109 -98 -90 l-36 10 13 48 c7 26 29 101 48 167 40 134 43 154 21
156 -8 1 -18 3 -22 4 -5 1 -23 6 -41 10 -41 10 -43 13 -30 63 12 49 -13 50
216 -13z m1241 -22 c6 -21 12 -49 15 -63 2 -14 14 -61 25 -105 38 -143 31
-214 -24 -261 -68 -58 -209 -74 -273 -31 -51 33 -77 92 -112 247 -17 73 -32
136 -35 140 -7 11 87 39 98 30 9 -8 44 -135 52 -190 18 -119 72 -174 145 -148
56 19 72 81 46 173 -3 11 -17 59 -30 107 -13 48 -27 92 -30 97 -10 15 23 27
106 40 4 1 12 -16 17 -36z m-681 -56 l92 -2 0 -48 c0 -40 -5 -53 -32 -81 -43
-44 -202 -226 -206 -234 -1 -4 42 -8 95 -9 159 -4 145 1 141 -52 l-3 -46 -125
2 c-242 5 -245 5 -248 37 -5 44 5 71 41 109 17 19 57 63 87 98 30 35 64 72 75
84 50 52 50 52 -18 52 -34 0 -85 1 -114 2 l-51 1 1 49 0 50 86 -6 c47 -3 128
-6 179 -6z"/>
<path d="M3129 5037 c-4 -34 -8 -57 -18 -114 -22 -118 -23 -149 -3 -151 116
-10 189 14 216 73 21 44 16 106 -12 134 -15 16 -57 43 -72 46 -3 1 -16 5 -30
8 -54 14 -80 15 -81 4z"/>
<path d="M3814 4844 c-73 -25 -121 -119 -97 -190 26 -77 154 -118 224 -71 44
29 78 96 75 146 -7 95 -102 149 -202 115z"/>
<path d="M1540 4616 c-75 -33 -84 -54 -45 -99 24 -27 26 -27 54 -13 39 21 70
62 64 85 -7 27 -43 40 -73 27z"/>
<path d="M1678 4480 c-49 -15 -100 -51 -94 -67 17 -43 76 -93 76 -64 0 5 13
14 28 20 16 7 36 25 46 42 16 28 16 32 2 54 -18 27 -18 27 -58 15z"/>
<path d="M4416 4464 l-29 -35 41 -40 c55 -52 100 -53 116 -1 6 19 -1 31 -37
67 -24 25 -48 45 -53 44 -5 0 -22 -16 -38 -35z"/>
<path d="M1073 4161 c-76 -35 -105 -123 -63 -193 27 -47 106 -88 156 -82 136
17 176 192 59 264 -49 30 -101 34 -152 11z"/>
<path d="M756 3578 c-19 -11 -55 -82 -56 -109 0 -10 11 -19 28 -23 15 -3 37
-8 48 -12 18 -5 24 0 32 28 18 54 21 97 9 106 -22 16 -43 20 -61 10z"/>
<path d="M632 2999 c-27 -10 -40 -40 -38 -93 l1 -39 52 -3 c56 -4 65 5 59 56
-8 68 -33 94 -74 79z"/>
<path d="M5190 2930 l-44 -5 3 -50 c4 -66 15 -85 50 -85 37 0 51 18 55 73 6
61 -7 74 -64 67z"/>
<path d="M1288 1392 c-67 -24 -71 -32 -37 -69 16 -18 32 -33 36 -33 7 1 63
102 63 115 0 7 -9 5 -62 -13z"/>
<path d="M1775 988 c-39 -32 -55 -48 -55 -58 0 -3 18 -15 40 -28 30 -17 41
-19 44 -10 10 30 22 128 17 128 -4 0 -24 -14 -46 -32z"/>
</g>
</svg>
