<?xml version="1.0" encoding="utf-8"?>
<!-- Generator: Adobe Illustrator 21.1.0, SVG Export Plug-In . SVG Version: 6.00 Build 0)  -->
<svg version="1.1" id="Ebene_1" xmlns="http://www.w3.org/2000/svg" xmlns:xlink="http://www.w3.org/1999/xlink" x="0px" y="0px"
	 viewBox="0 0 398.4 160.8" style="enable-background:new 0 0 398.4 160.8;" xml:space="preserve">
<style type="text/css">
	.st0{enable-background:new    ;}
	.st1{fill:#FFFFFF;}
	.st2{fill:none;}
</style>
<g class="st0">
	<path class="st1" d="M157.1,131.3h2.3v10.8c0,1.9-0.7,3.4-2,4.5c-1.4,1.1-3.2,1.6-5.6,1.6s-4.2-0.5-5.5-1.6
		c-1.3-1.1-1.9-2.6-1.9-4.5v-10.7h2.3v10.9c0,1.4,0.5,2.5,1.4,3.2c0.9,0.7,2.2,1.1,3.9,1.1s3-0.4,3.9-1.1c0.9-0.8,1.3-1.8,1.3-3.2
		V131.3z"/>
	<path class="st1" d="M166.9,147.9h-2.3v-16.6h2.3v8.3l8.9-8.3h2.7l-7.9,7.2l8.2,9.4h-2.7l-7.2-8.1l-2.1,1.5V147.9z"/>
	<path class="st1" d="M183.8,141v6.9h-2.3v-16.6h5.4c2.4,0,4.2,0.4,5.3,1.2s1.7,2,1.7,3.5c0,2.2-1.3,3.7-3.9,4.5l5.3,7.5h-2.7
		l-4.8-6.9H183.8z M183.8,133v6.4h3.1c1.6,0,2.8-0.3,3.5-0.8s1.1-1.3,1.1-2.4s-0.4-1.9-1.2-2.4c-0.8-0.5-2-0.7-3.7-0.7H183.8z"/>
	<path class="st1" d="M213.3,147.9h-2.4l-2.5-5.3h-7.9l-2.4,5.3h-2.3l7.8-16.7h1.9L213.3,147.9z M201.4,140.9h6.4l-2.3-5.2
		c-0.3-0.7-0.6-1.5-0.9-2.4c-0.2,0.7-0.5,1.5-0.8,2.4L201.4,140.9z"/>
	<path class="st1" d="M218.3,147.9H216v-16.6h2.3V147.9z"/>
	<path class="st1" d="M236.9,131.3h2.1v16.6h-2.6l-10.7-14h-0.1c0.1,1.7,0.2,3.2,0.2,4.5v9.5h-2.1v-16.6h2.6l10.7,13.9h0.1
		c-0.1-2.2-0.2-3.6-0.2-4.4V131.3z"/>
	<path class="st1" d="M255.4,146.2v1.7h-11v-16.6h11v1.7h-8.7v5.4h8.1v1.7h-8.1v6.1H255.4z"/>
</g>
<path class="st1" d="M221.4,21.8V5.4c0-3-2.4-5.4-5.4-5.4h-33.6c-3,0-5.4,2.4-5.4,5.4v16.4H0v1.4h177v0.6c0,3,2.4,5.4,5.4,5.4H216
	c3,0,5.4-2.4,5.4-5.4v-0.6h177v-1.4H221.4z M219.8,23.9c0,2.1-1.7,3.8-3.8,3.8h-33.6c-2.1,0-3.8-1.7-3.8-3.8V5.4
	c0-2.1,1.7-3.8,3.8-3.8H216c2.1,0,3.8,1.7,3.8,3.8V23.9z"/>
<polygon class="st1" points="398.4,122.7 0,122.7 0,121.3 398.4,121.3 "/>
<g>
	<g>
		<path class="st2" d="M216,1.6h-33.6c-2.1,0-3.8,1.7-3.8,3.8v18.5c0,2.1,1.7,3.8,3.8,3.8H216c2.1,0,3.8-1.7,3.8-3.8V5.4
			C219.8,3.3,218.1,1.6,216,1.6z M186,22.4h-2.6v-14h7.1v2.3H186v3.6h4.3v2.2H186V22.4z M193,21.8c-0.3,0.5-0.8,0.8-1.4,0.8
			c-0.6,0-1.1-0.3-1.4-0.8c-0.2-0.3-0.3-0.6-0.3-0.9c0-0.9,0.7-1.7,1.6-1.7c0.9,0,1.6,0.8,1.6,1.7C193.2,21.2,193.1,21.6,193,21.8z
			 M207.8,22.4l-0.1-0.5l-0.9-6.1c-0.2-1.3-0.3-2.4-0.4-3.3l0,0c-0.2,0.9-0.4,1.9-0.7,3l-2,6.5l-0.2,0.5H201l-0.2-0.5l-1.9-6
			c-0.4-1.1-0.7-2.4-0.8-3.5l0,0c-0.1,1.2-0.2,2.3-0.4,3.6L197,22l-0.1,0.5h-2.6l0.1-0.5l2-13.5h3l2.2,7.2c0.3,1,0.5,2,0.7,3l0,0
			c0.2-1.1,0.4-1.9,0.8-2.9l2.3-7.2h3l2,13.5l0.1,0.5h-2.7V22.4z M214.7,21.8c-0.3,0.5-0.8,0.8-1.4,0.8s-1.1-0.3-1.4-0.8
			c-0.2-0.3-0.3-0.6-0.3-0.9c0-0.9,0.7-1.7,1.6-1.7c0.9,0,1.6,0.8,1.6,1.7C215,21.2,214.9,21.6,214.7,21.8z"/>
	</g>
	<g>
		<polygon class="st1" points="186,10.7 186,14.3 190.3,14.3 190.3,16.5 186,16.5 186,22.4 183.4,22.4 183.4,8.4 190.5,8.4 
			190.5,10.7 		"/>
		<path class="st1" d="M193.2,20.9c0,0.3-0.1,0.6-0.2,0.9c-0.3,0.5-0.8,0.8-1.4,0.8c-0.6,0-1.1-0.3-1.4-0.8
			c-0.2-0.3-0.3-0.6-0.3-0.9c0-0.9,0.7-1.7,1.6-1.7C192.5,19.2,193.2,20,193.2,20.9z"/>
		<path class="st1" d="M210.5,22.4h-2.7l-0.1-0.5l-0.9-6.1c-0.2-1.3-0.3-2.4-0.4-3.3l0,0c-0.2,0.9-0.4,1.9-0.7,3l-2,6.5l-0.2,0.5
			H201l-0.2-0.5l-1.9-6c-0.4-1.1-0.7-2.4-0.8-3.5l0,0c-0.1,1.2-0.2,2.3-0.4,3.6L197,22l-0.1,0.5h-2.6l0.1-0.5l2-13.5h3l2.2,7.2
			c0.3,1,0.5,2,0.7,3l0,0c0.2-1.1,0.4-1.9,0.8-2.9l2.3-7.2h3l2,13.5L210.5,22.4z"/>
		<path class="st1" d="M215,20.9c0,0.3-0.1,0.6-0.2,0.9c-0.3,0.5-0.8,0.8-1.4,0.8s-1.1-0.3-1.4-0.8c-0.2-0.3-0.3-0.6-0.3-0.9
			c0-0.9,0.7-1.7,1.6-1.7C214.3,19.2,215,20,215,20.9z"/>
	</g>
</g>
<g class="st0">
	<path class="st1" d="M100,58.1c5,0,8.8,1.3,11.4,3.9c2.6,2.6,3.9,6.5,3.9,11.6c0,5.1-1.4,9-4.1,11.7c-2.7,2.7-6.8,4-12.1,4h-7.5
		V58.1H100z M98.9,87.4c9.3,0,14-4.6,14-13.9c0-4.5-1.1-7.8-3.4-10.1c-2.3-2.3-5.6-3.4-10-3.4h-5.8v27.4H98.9z"/>
	<path class="st1" d="M141,89.3l-4.3-11h-12.7l-4.3,11h-2.4L129.7,58h1.4l12.3,31.4H141z M129.1,65.1l-4.4,11.2h11.2l-4.3-11.3
		c-0.3-0.9-0.8-2.1-1.3-3.7C130,62.7,129.6,63.9,129.1,65.1z"/>
	<path class="st1" d="M170.6,58.1v31.3h-2.2l-18.5-27.8h-0.2c0.2,3.2,0.2,5.6,0.2,7.5v20.3h-2.1V58.1h2.2l18.5,27.7h0.1
		c-0.1-2.7-0.2-5.2-0.2-7.3V58.1H170.6z"/>
	<path class="st1" d="M200.2,58.1h2.2v20.2c0,3.6-1,6.4-3.1,8.4c-2.1,2-5,3-8.6,3c-3.7,0-6.5-1-8.6-3c-2-2-3-4.9-3-8.5V58.1h2.2
		v20.2c0,3,0.8,5.4,2.5,7c1.7,1.7,4,2.5,7,2.5c3,0,5.3-0.8,7-2.5s2.5-3.9,2.5-6.8V58.1z"/>
	<path class="st1" d="M210.9,89.3V58.1h8.6c3.8,0,6.7,0.7,8.5,2c1.8,1.3,2.7,3.3,2.7,6c0,1.8-0.6,3.4-1.7,4.6
		c-1.1,1.2-2.7,2-4.8,2.3V73c2.5,0.4,4.3,1.1,5.5,2.4c1.2,1.2,1.8,2.9,1.8,5c0,2.9-1,5.1-2.9,6.7c-1.9,1.6-4.6,2.3-8.1,2.3H210.9z
		 M213.1,60v12h6.9c2.9,0,5.1-0.5,6.4-1.5c1.3-1,2-2.5,2-4.6s-0.7-3.6-2.2-4.5c-1.5-1-3.7-1.4-6.8-1.4H213.1z M220,73.9h-6.9v13.5
		h7.4c5.8,0,8.7-2.4,8.7-7.1C229.2,76.1,226.1,73.9,220,73.9z"/>
	<path class="st1" d="M255.5,87.3v2h-17.1V58.1h17.1v2h-14.9v11.8h14.1v2h-14.1v13.4H255.5z"/>
</g>
<g class="st0">
	<path class="st1" d="M290.8,89.3h-9.2l-1.5-5.9h-10.2l-1.6,5.9H259L269.2,58h11.3L290.8,89.3z M271.6,76.6h6.7
		c-2-7.4-3.1-11.9-3.4-13.4C274.6,65.1,273.5,69.6,271.6,76.6z"/>
	<path class="st1" d="M305.8,77.6v-6.5h13.5v16.8c-3.6,1.3-7.7,1.9-12.1,1.9c-4.8,0-8.5-1.4-11.2-4.2c-2.6-2.8-3.9-6.7-3.9-11.9
		c0-5.1,1.4-9.1,4.3-11.9c2.9-2.8,6.9-4.2,12.1-4.2c3.8,0,7.1,0.7,10.1,2l-2.7,6.6c-2.2-1.1-4.6-1.7-7.2-1.7s-4.6,0.8-5.9,2.4
		c-1.3,1.6-2,3.9-2,6.8s0.6,5.2,1.8,6.7c1.2,1.5,3,2.3,5.3,2.3c1.3,0,2.4-0.1,3.4-0.4v-4.9H305.8z"/>
	<path class="st1" d="M334.2,78v11.4h-8.5V58.1H336c8.5,0,12.8,3.1,12.8,9.2c0,3.6-1.8,6.4-5.3,8.4l9.1,13.6h-9.6L336.3,78H334.2z
		 M334.2,64.5v7.2h1.6c3,0,4.4-1.3,4.4-3.9c0-2.2-1.4-3.2-4.3-3.2H334.2z"/>
	<path class="st1" d="M354.2,73.7c0-5.2,1.3-9.2,3.9-12c2.6-2.7,6.4-4.1,11.3-4.1s8.7,1.4,11.3,4.1s3.8,6.7,3.8,12s-1.3,9.3-3.9,12
		s-6.3,4.1-11.3,4.1s-8.7-1.4-11.3-4.1C355.5,82.9,354.2,78.9,354.2,73.7z M369.4,64.5c-4.2,0-6.3,3-6.3,9.1s2.1,9.1,6.3,9.1
		c2.2,0,3.7-0.7,4.8-2.2c1-1.5,1.5-3.8,1.5-6.9c0-3.1-0.5-5.4-1.6-6.9C373.1,65.3,371.5,64.5,369.4,64.5z"/>
</g>
<g>
	<rect x="32.8" y="104.7" class="st1" width="3.7" height="4.5"/>
	<g>
		<path class="st1" d="M23.7,36.3c0.4,0,0.8,0,1.2,0c0,3,0,5.8,0.1,8.7c0.3,0,0.8-0.3,1.2-0.3c0-2.8,0-5.6,0-8.4c0.4,0,0.9,0,1.3,0
			c0,2.7,0,5.4,0,8c0.3,0,0.9-0.2,1.3-0.2c0-2.6,0-5.2,0-7.8c0.4,0,0.9,0,1.3,0c0,2.5,0,5,0,7.6c0.5,0,0.8-0.1,1.3-0.1
			c0-2.5,0-5,0-7.4c0.5,0,0.9,0,1.3,0c0,2.4,0,4.8,0,7.3c0.3,0.2,0.8-0.1,1.3,0c0-2.4,0-4.8,0-7.3c0.4,0,0.9,0,1.4,0
			c0,2.4,0,4.8,0,7.2c0.4,0.1,0.9,0.1,1.3,0.1c0-2.4,0-4.9,0-7.3c0.4,0,0.9,0,1.3,0c0,2.5,0,4.9,0,7.4c0.4,0.1,0.8,0.1,1.2,0.2
			c0.1-2.4,0-5.1,0.1-7.6c0.4,0,0.9,0,1.3,0c0,2.6,0,5.2,0,7.7c0.3,0.2,0.8,0.2,1.2,0.3c0.1-2.6,0-5.4,0.1-8c0.4,0,0.9,0,1.3,0
			c0,2.8,0,5.6,0,8.3c0.3,0.3,0.9,0.3,1.3,0.5c0-2.9,0-5.9,0-8.8c0.4,0,0.9,0,1.3,0c0,3.1,0,6.1,0,9.1c0.8,0.4,1.6,0.8,2.4,1.1
			c5.5,2.5,9.8,6.3,13.1,11.3c3.5,5.3,6.2,13.2,4.5,22.3c-1.5,7.7-5.3,13.3-10.3,17.6c-5.1,4.4-11.5,7.3-20.1,7.7l-1.4,0.1
			c-1.1-0.2-2.2-0.2-3.2-0.3c-7-0.8-12.5-3.7-16.9-7.4c-5-4.3-8.8-10-10.3-17.5c-1.7-8.9,0.9-17,4.4-22.3c1.8-2.8,4.1-5.2,6.6-7.3
			c2.6-2.1,5.6-3.8,8.9-5c0-3,0-6.1,0-9.1C23.6,36.4,23.6,36.3,23.7,36.3z M40.3,50.2c0.7-0.5,1.1-1.6,1.1-2.5c-0.1-2.5-2.7-2.7-5-3
			c-0.1,0-0.1,0.1-0.1,0.2c-0.3,1.9-0.5,3.8-0.8,5.6C37.2,50.8,39,51.2,40.3,50.2z M28.1,45.4c0,0.4,0.1,0.7,0.1,1.1
			c0.4,0,1.1-0.1,1.7-0.2c0.2,1.5,0.5,3.1,0.6,4.6c0.5,0,0.9-0.1,1.3-0.2c-0.2-1.6-0.4-3.1-0.6-4.6c0.5-0.1,1.1-0.2,1.7-0.2
			c-0.1-0.4-0.1-0.8-0.2-1.2C31.3,45,29.7,45.2,28.1,45.4z M22.7,47.1c-0.3,0.2-0.7,0.7-0.8,1c-0.4,1.4,0.5,2.2,1.5,2.3
			c0.7,0,2.1-0.4,2.1,0.5c0,0.8-1.4,1-1.9,0.6c-0.1,0.5-0.4,0.8-0.5,1.4c1.7,0.5,3.8-0.4,3.8-2c0-0.6-0.3-1.3-0.9-1.6
			c-0.7-0.3-2.8,0.4-2.8-0.6c0-0.8,1.2-0.8,1.7-0.7c0.1-0.4,0.3-0.7,0.4-1.2C24.3,46.4,23.3,46.7,22.7,47.1z M43.3,49.6
			c-0.7,2.7,2.3,4.6,4.5,3.8c1.2-0.4,2.2-1.9,1.9-3.6c-0.3-1.6-2.2-2.6-3.7-2.5C44.6,47.4,43.6,48.3,43.3,49.6z M18.4,50.1
			c-1.4-0.3-2.9,1.7-3.7,2c1.2,1.6,2.4,3.2,3.7,4.7c0.6-0.6,1.9-1.2,2.6-2c1-1.2,0-3.2-1.8-2.5C19.9,51.4,19,50.2,18.4,50.1z
			 M56.3,54.7c0.2-0.8-0.2-1.4-0.6-1.8c-0.5-0.5-1.7-1.4-2.1-1.8c-1.3,1.5-2.7,2.9-4,4.4c0.4,0.2,0.6,0.6,1,0.8
			c0.1-0.2,0.5-0.4,0.8-0.8c0.3-0.3,0.6-0.9,0.8-0.9s0.2,0.4,0.4,0.5c-0.3,0.8-0.5,1.7-0.7,2.5c0.5,0.3,0.8,0.7,1.2,1
			c0.2-0.9,0.3-1.9,0.6-2.8C54.9,56.5,56.1,55.6,56.3,54.7z M30.8,52.2c0.6,0.4,1.3,0.7,1.9,1.1c0,2.2,0,4.4,0,6.6
			c-2.7-1.4-5.2-2.9-7.9-4.4c0,0.7,0,1.5,0,2.2c2.6,1.5,5.3,2.9,7.9,4.5c0,2.2,0,4.3,0,6.5c-2.7-1.4-5.2-3-7.9-4.3
			c0,0.7,0,1.4,0,2.2c2.6,1.6,5.3,2.9,7.9,4.5c0,2.2,0,4.4,0,6.6c-2.6-1.5-5.2-3-7.9-4.4c0,0.7,0,1.5,0,2.2c2.6,1.5,5.3,2.9,7.9,4.5
			c0,2.2,0,4.4,0,6.6c-2.6-1.5-5.2-3-7.9-4.4c0,0.7,0,1.5,0,2.2c2.6,1.5,5.3,2.9,7.9,4.5c0,2.2,0,4.4,0,6.6
			c-3.1-1.7-6.1-2.4-9.2-4.1c0-11.8,0-24.8,0-36.6c-3.9,2-7.2,5.3-9.4,9.3s-3.3,9.9-1.9,15.7c1.2,4.9,3.7,8.8,7.2,11.7
			c3.4,2.9,7.8,5,13.3,5.6c0-0.5,0-1,0-1.5c0.2,0.1,0.5,0.2,0.7,0.4c0.2,0.1,0.5,0.4,0.6,0.2c0.1-2.1,0.1-4.4,0.1-6.6
			c-0.4-0.2-0.9-0.4-1.3-0.8c0-0.7,0-1.4,0-2.1c0.5,0.2,0.8,0.5,1.3,0.6c0-2.2,0-4.4,0-6.6c-0.4-0.3-0.9-0.5-1.3-0.8
			c0-0.7,0-1.4,0-2.1c0.4,0.2,0.8,0.5,1.3,0.6c0-2.2,0-4.4,0-6.6c-0.4-0.3-0.9-0.5-1.3-0.8c0-0.7,0-1.4,0-2.1
			c0.5,0.2,0.8,0.5,1.3,0.6c0-2.2,0-4.4,0-6.6c-0.4-0.2-0.9-0.5-1.3-0.8c0-0.7,0-1.4,0-2.1c0.5,0.2,0.8,0.5,1.3,0.6
			c0-2.2,0-4.4,0-6.6c-0.4-0.3-0.9-0.5-1.3-0.8c-0.1-0.4,0.2-1.1-0.1-1.3C32.1,52,31.3,52,30.8,52.2z M35.4,54c0,2.2,0,4.4,0,6.6
			c0.5-0.1,0.9-0.6,1.3-0.6c0,0.7,0,1.4,0,2.1c-0.5,0.2-0.9,0.5-1.3,0.7c0,2.2,0,4.4,0,6.6c0.5-0.1,0.9-0.6,1.3-0.6
			c0,0.7,0,1.4,0,2.1c-0.5,0.2-0.8,0.5-1.3,0.7c0,2.2,0,4.4,0,6.6c0.3,0,0.9-0.6,1.3-0.6c0,0.7,0,1.4,0,2.1
			c-0.4,0.2-0.8,0.5-1.3,0.7c0,2.2,0,4.4,0,6.6c0.4,0,0.9-0.6,1.3-0.6c0,0.7,0,1.4,0,2.1c-0.5,0.2-0.9,0.5-1.3,0.7
			c0,2.2,0,4.5,0,6.7c0.5-0.1,0.9-0.6,1.3-0.6c0,0.5,0,1,0,1.5c5.5-0.5,9.8-2.7,13.3-5.6c3.4-2.9,6-6.7,7.2-11.6
			c0.7-2.7,0.8-5.9,0.5-8.6c-0.4-2.7-1.3-5.1-2.3-7.1c-2.1-4.2-5.4-7.3-9.4-9.4c0,11.9,0,24.8,0,36.7c-2.7,1.4-5.4,2-8,3.5
			c-0.4,0.2-0.8,0.4-1.2,0.5c0-2.2,0-4.4,0-6.6c2.7-1.4,5.2-2.9,7.9-4.4c0-0.7,0-1.5,0-2.2c-2.6,1.4-5.3,3.1-7.9,4.3
			c0-2.2,0-4.4,0-6.6c2.6-1.4,5.2-2.9,7.9-4.4c0-0.7,0-1.5,0-2.2c-2.7,1.4-5.2,3-7.9,4.3c0-2.2,0-4.4,0-6.6c2.6-1.5,5.2-2.9,7.9-4.4
			c0-0.7,0-1.5,0-2.2c-2.3,1.2-4.7,2.6-6.9,3.8c-0.3,0.2-0.6,0.5-1,0.5c0-2.2,0-4.3,0-6.5c2-1.1,4-2.2,5.9-3.3
			c0.7-0.4,1.4-0.7,1.9-1.2c0-0.7,0-1.4,0-2.1c-2.2,1.1-4.7,2.6-6.9,3.8c-0.3,0.2-0.6,0.4-1,0.5c0-2.2,0-4.3,0-6.5
			c0.6-0.4,1.4-0.7,2-1.2c-0.7-0.1-1.3-0.2-2-0.2c0,0.4,0,0.9,0,1.3C36.3,53.6,35.8,53.8,35.4,54z M9.3,58.8c-0.1,1.8,2,4,4.3,3
			c0.9-0.4,1.9-1.4,2.1-2.4c0.6-2.4-1.6-4.1-3.8-3.8C10.6,56,9.4,57.4,9.3,58.8z M59.3,57c-1.7,1.1-3.3,2.2-5,3.2
			c0.2,0.4,0.5,0.7,0.7,1.1c0.7-0.4,1.3-0.9,2-1.2c0.5,0.7,0.9,1.4,1.4,2c0.3-0.3,0.7-0.4,1-0.7c-0.5-0.6-0.9-1.3-1.3-2
			c0.3-0.2,0.6-0.4,0.9-0.6c0.5,0.7,1,1.4,1.5,2.2c0.4-0.2,0.8-0.4,1.1-0.7C60.7,59.2,60,58.1,59.3,57z M6.8,63.4
			c-0.9,0.8-1,2.6-1.4,3.6c2,0.5,3.8,1.2,5.7,1.7c0.1-0.5,0.3-0.8,0.4-1.3c-0.8-0.2-1.5-0.4-2.2-0.7c0-0.2,0.1-0.4,0.2-0.5
			c0.8-0.2,1.7-0.3,2.6-0.5c0.1-0.5,0.3-1,0.5-1.5c-1,0.2-1.9,0.5-2.9,0.6C9.9,63.2,7.8,62.5,6.8,63.4z M63,63.6
			c-1.9,0.6-3.9,1.1-5.7,1.8c0.4,1.3,0.8,2.6,1.2,3.9c0.4-0.1,0.8-0.2,1.2-0.4c-0.2-1-0.6-1.8-0.8-2.8c0.4-0.1,0.7-0.2,1.1-0.3
			c0.2,0.8,0.5,1.6,0.7,2.4c0.4-0.1,0.9-0.2,1.2-0.4c-0.3-0.7-0.5-1.6-0.8-2.3c0.3-0.1,0.7-0.2,1.1-0.3c0.2,0.9,0.5,1.7,0.8,2.5
			c0.4,0,0.8-0.2,1.2-0.3C63.9,66.1,63.5,64.8,63,63.6z M7.7,70.7C7,70.1,5.6,70.1,5,70.8c-0.7,0.8-0.4,2.4-0.5,3.9
			c2,0.1,4.1,0.1,6,0.2c0-0.4,0-0.9,0-1.3c-0.8,0-1.6,0-2.3-0.1C8.2,72.3,8.3,71.3,7.7,70.7z M59,71.4c0,0.4,0,0.9,0,1.3
			c0.8,0.1,1.7-0.2,2.4,0c0,0.2,0,0.3,0,0.5c-0.7,0.5-1.7,0.8-2.3,1.4c0.1,0.5,0,1,0.1,1.5c0.8-0.5,1.6-1,2.4-1.5
			c0.2,1.4,2.6,1.5,3.2,0.4c0.5-1,0.1-2.5,0.2-3.8C62.9,71.2,60.9,71.3,59,71.4z M61.6,81.5c2-0.1,1.7-3.2-0.4-2.9
			C59.3,78.8,59.7,81.6,61.6,81.5z M6.6,80.7c0.4,1.5,3,1.3,3-0.5c0-1-0.9-1.6-1.9-1.4C6.8,79,6.2,79.6,6.6,80.7z M55.3,87.5
			c0.4,0.2,0.7,0.4,1.1,0.5c0.3-0.5,0.5-1.1,0.8-1.5c1.4,0.7,2.8,1.4,4.3,2.1c0.1-0.4,0.4-0.8,0.6-1.2c-1.4-0.7-2.9-1.4-4.3-2.2
			c0.2-0.5,0.5-1,0.8-1.5c-0.4-0.2-0.7-0.4-1.1-0.5C56.8,84.8,55.9,86.1,55.3,87.5z M11,83.6c-0.7,0.1-1.4,0.6-1.5,1.2
			c-0.2,1,0.6,2.6-0.4,2.6c-0.7,0-1-1.2-0.7-1.9c-0.5-0.1-0.8-0.3-1.3-0.4c-0.3,1.3,0.1,2.5,0.9,3.1c1.1,0.9,2.9,0.2,3-1.2
			c0-0.5-0.5-1.8,0.1-2.1c0.8-0.4,1.3,0.9,1.1,1.5c0.4,0.1,0.8,0.3,1.3,0.4C13.6,85.2,12.7,83.5,11,83.6z M54.3,88.9
			c-0.2,0.4-0.7,0.6-0.9,1c0.5,0.5,1.1,0.9,1.5,1.5c-0.6,0.6-1.1,1.2-1.7,1.7c-0.6-0.4-1-1-1.6-1.4c-0.3,0.3-0.6,0.6-0.9,0.9
			c1.5,1.3,2.9,2.8,4.5,4c0.2-0.4,0.6-0.6,0.8-1c-0.6-0.6-1.3-1.1-1.8-1.8c0.6-0.5,1.1-1.2,1.7-1.7c0.7,0.5,1.2,1.2,1.9,1.7
			c0.3-0.3,0.6-0.7,0.9-1C57.2,91.6,55.8,90.2,54.3,88.9z M16.2,89.9c-2,0.7-4,1.3-6.1,1.9c0,0.2,0.2,0.4,0.4,0.6s0.3,0.4,0.5,0.6
			c0.4-0.2,0.9-0.3,1.3-0.5c0.4,0.6,1,1.1,1.5,1.8c-0.2,0.4-0.4,0.8-0.6,1.2c0.4,0.3,0.6,0.8,1.1,1.1c0.9-1.9,1.9-3.8,2.8-5.7
			C16.7,90.5,16.5,90.1,16.2,89.9z M45.7,96.9c-0.2,2.1,1.5,3.6,3.2,3.6c1.4,0,2.8-0.9,3-2.5c-0.4,0-0.9-0.1-1.3-0.1
			c-0.4,2.2-3.6,1.4-3.5-0.8c0-0.9,1-1.8,2.1-1.5c0.2-0.4,0.3-0.8,0.5-1.3C47.7,93.9,45.9,95.2,45.7,96.9z M21.5,94.5
			c-1.3,0.9-2.7,1.9-3.9,2.8c-0.4,0.3-1,0.5-1.3,0.9c0.4,0.2,0.8,0.4,1.2,0.7c0.5-0.2,0.7-0.6,1.2-0.8c0.7,0.4,1.3,0.8,1.9,1.2
			c-0.1,0.4-0.2,0.9-0.2,1.3c0.5,0.2,0.9,0.7,1.3,0.7c0.2-2.2,0.6-4.1,0.8-6.3C22.2,94.8,21.9,94.6,21.5,94.5z M25.1,96.6
			c-0.1,0.4-0.2,0.7-0.3,1.1c0.5,0.2,1.1,0.3,1.6,0.5c-0.4,1.5-0.9,3-1.3,4.5c0.4,0.1,0.8,0.3,1.3,0.3c0.5-1.5,0.8-3.1,1.4-4.5
			c0.5,0.2,1,0.3,1.6,0.5c0.1-0.4,0.3-0.7,0.3-1.2C28.1,97.4,26.7,96.9,25.1,96.6z M41.6,97.3c0.2,0.6,0.3,1.2,0.5,1.9
			c0.2,0.7,0.5,1.4,0.5,2c-0.1,0.7-0.7,1.2-1.4,1.1c-1-0.1-1.1-1.5-1.3-2.5c-0.2-0.7-0.3-1.3-0.5-1.9c-0.5,0.1-0.9,0.2-1.3,0.3
			c0.6,1.7,0.5,4.6,2.2,5.2c1.1,0.4,2.7-0.1,3.3-0.8c0.8-1,0.2-2.5-0.1-3.7c-0.1-0.3-0.2-0.7-0.2-1c-0.1-0.3-0.1-0.7-0.3-0.9
			C42.4,97.1,42.1,97.2,41.6,97.3z M31.4,99.3c0.9,0.1,1.9,0.1,2.9,0.1c-0.7,0.8-1.6,1.7-2.3,2.6c-0.3,0.3-0.7,0.6-0.8,0.9
			c-0.1,0.4,0.1,0.7-0.1,1.1c1.5,0.1,3.2,0.1,4.7,0.2c0.1-0.4,0.1-0.8,0.1-1.2c-1-0.1-2-0.1-3.1-0.1c0.7-0.8,1.6-1.7,2.3-2.6
			c0.2-0.3,0.7-0.6,0.8-0.9c0.1-0.4-0.1-0.7,0.1-1.1c-1.5,0-3.1-0.1-4.6-0.2C31.4,98.6,31.4,98.9,31.4,99.3z"/>
		<path class="st1" d="M36.9,49.5c0.1-1.2,0.4-2.2,0.5-3.4c1.2,0.1,2.5,0.5,2.6,1.5C40.1,49.2,38.8,50,36.9,49.5z"/>
		<path class="st1" d="M46.2,48.5c1-0.2,2.2,0.5,2.2,1.6c0,1-0.7,1.8-1.3,2c-0.8,0.2-1.8-0.1-2.2-0.6C44.2,50.5,44.8,48.8,46.2,48.5
			z"/>
		<path class="st1" d="M17.2,53.2c-0.2-0.3-0.4-0.6-0.7-0.9c0.3-0.6,1.8-1.3,1.9-0.3C18.4,52.6,17.6,52.8,17.2,53.2z"/>
		<path class="st1" d="M53,53.9c0.2-0.4,0.6-0.5,0.8-0.9c0.3,0.1,1.1,0.8,1.2,1.2c0,0.3-0.1,0.6-0.5,0.7
			C53.7,54.9,53.5,54.1,53,53.9z"/>
		<path class="st1" d="M18.7,55.1c-0.2-0.4-0.5-0.7-0.8-1c0.2-0.4,2.3-1.7,2.1-0.2C20,54.5,19.1,54.7,18.7,55.1z"/>
		<path class="st1" d="M12.1,57.1c1.3-0.3,2.8,0.8,2.3,2.4c-0.2,0.8-1.1,1.3-1.9,1.2c-0.8-0.1-1.7-0.8-1.8-1.6
			C10.5,58.2,11,57.3,12.1,57.1z"/>
		<path class="st1" d="M8.2,66.3c-0.4-0.1-0.9-0.2-1.3-0.4c0.2-0.7,0.6-2.1,1.6-1.3C8.7,65.3,8.3,65.8,8.2,66.3z"/>
		<path class="st1" d="M7,73.4c-0.4,0-0.9-0.1-1.4-0.1c0-0.6,0-1.2,0.3-1.6C6.9,71.3,7.2,72.4,7,73.4z"/>
		<path class="st1" d="M62.6,72.6c0.4,0,0.9,0,1.3,0c0.1,0.9,0.1,1.9-0.7,1.8C62.5,74.3,62.6,73.4,62.6,72.6z"/>
		<path class="st1" d="M14.4,93.1c-0.3-0.3-0.6-0.7-0.9-1c0.5-0.3,1.1-0.4,1.6-0.6c0.1,0,0.1,0,0.1,0.1
			C14.9,92.1,14.6,92.6,14.4,93.1z"/>
		<path class="st1" d="M21,96.3C21.1,96.3,21.1,96.4,21,96.3c0,0.7-0.2,1.1-0.2,1.8c-0.5-0.1-0.8-0.5-1.2-0.6
			C20,97,20.5,96.7,21,96.3z"/>
	</g>
</g>
</svg>
