<?xml version="1.0" encoding="utf-8"?>
<!-- Generator: Adobe Illustrator 21.1.0, SVG Export Plug-In . SVG Version: 6.00 Build 0)  -->
<svg version="1.1" id="Ebene_1" xmlns="http://www.w3.org/2000/svg" xmlns:xlink="http://www.w3.org/1999/xlink" x="0px" y="0px"
	 viewBox="0 0 398.4 122.7" style="enable-background:new 0 0 398.4 122.7;" xml:space="preserve">
<style type="text/css">
	.st0{fill-rule:evenodd;clip-rule:evenodd;fill:#008542;}
	.st1{fill:#1D1D1B;}
	.st2{fill:url(#SVGID_1_);}
	.st3{fill:url(#SVGID_2_);}
	.st4{fill:#FFFFFF;}
	.st5{fill:#008542;}
</style>
<g>
	<rect x="37.3" y="106" class="st0" width="3.7" height="4.5"/>
	<g>
		<path class="st0" d="M28.2,37.6c0.4,0,0.8,0,1.2,0c0,3,0,5.8,0.1,8.7c0.3,0,0.8-0.3,1.2-0.3c0-2.8,0-5.6,0-8.4c0.4,0,0.9,0,1.3,0
			c0,2.7,0,5.4,0,8c0.3,0,0.9-0.2,1.3-0.2c0-2.6,0-5.2,0-7.8c0.4,0,0.9,0,1.3,0c0,2.5,0,5,0,7.6c0.5,0,0.8-0.1,1.3-0.1
			c0-2.5,0-5,0-7.4c0.5,0,0.9,0,1.3,0c0,2.4,0,4.8,0,7.3c0.3,0.2,0.8-0.1,1.3,0c0-2.4,0-4.8,0-7.3c0.4,0,0.9,0,1.4,0
			c0,2.4,0,4.8,0,7.2c0.4,0.1,0.9,0.1,1.3,0.1c0-2.4,0-4.9,0-7.3c0.4,0,0.9,0,1.3,0c0,2.5,0,4.9,0,7.4c0.4,0.1,0.8,0.1,1.2,0.2
			c0.1-2.4,0-5.1,0.1-7.6c0.4,0,0.9,0,1.3,0c0,2.6,0,5.2,0,7.7c0.3,0.2,0.8,0.2,1.2,0.3c0.1-2.6,0-5.4,0.1-8c0.4,0,0.9,0,1.3,0
			c0,2.8,0,5.6,0,8.3c0.3,0.3,0.9,0.3,1.3,0.5c0-2.9,0-5.9,0-8.8c0.4,0,0.9,0,1.3,0c0,3.1,0,6.1,0,9.1c0.8,0.4,1.6,0.8,2.4,1.1
			c5.5,2.5,9.8,6.3,13.1,11.3c3.5,5.3,6.2,13.2,4.5,22.3C68.8,89.1,65,94.7,60,99c-5.1,4.4-11.5,7.3-20.1,7.7l-1.4,0.1
			c-1.1-0.2-2.2-0.2-3.2-0.3c-7-0.8-12.5-3.7-16.9-7.4c-5-4.3-8.8-10-10.3-17.5c-1.7-8.9,0.9-17,4.4-22.3c1.8-2.8,4.1-5.2,6.6-7.3
			c2.6-2.1,5.6-3.8,8.9-5c0-3,0-6.1,0-9.1C28.1,37.7,28.1,37.6,28.2,37.6z M44.8,51.5c0.7-0.5,1.1-1.6,1.1-2.5c-0.1-2.5-2.7-2.7-5-3
			c-0.1,0-0.1,0.1-0.1,0.2c-0.3,1.9-0.5,3.8-0.8,5.6C41.7,52.2,43.5,52.5,44.8,51.5z M32.6,46.7c0,0.4,0.1,0.7,0.1,1.1
			c0.4,0,1.1-0.1,1.7-0.2c0.2,1.5,0.5,3.1,0.6,4.6c0.5,0,0.9-0.1,1.3-0.2c-0.2-1.6-0.4-3.1-0.6-4.6c0.5-0.1,1.1-0.2,1.7-0.2
			c-0.1-0.4-0.1-0.8-0.2-1.2C35.8,46.3,34.2,46.5,32.6,46.7z M27.2,48.4c-0.3,0.2-0.7,0.7-0.8,1c-0.4,1.4,0.5,2.2,1.5,2.3
			c0.7,0,2.1-0.4,2.1,0.5c0,0.8-1.4,1-1.9,0.6c-0.1,0.5-0.4,0.8-0.5,1.4c1.7,0.5,3.8-0.4,3.8-2c0-0.6-0.3-1.3-0.9-1.6
			c-0.7-0.3-2.8,0.4-2.8-0.6c0-0.8,1.2-0.8,1.7-0.7c0.1-0.4,0.3-0.7,0.4-1.2C28.7,47.8,27.8,48,27.2,48.4z M47.8,50.9
			c-0.7,2.7,2.3,4.6,4.5,3.8c1.2-0.4,2.2-1.9,1.9-3.6c-0.3-1.6-2.2-2.6-3.7-2.5C49.1,48.7,48.1,49.7,47.8,50.9z M22.9,51.4
			c-1.4-0.3-2.9,1.7-3.7,2c1.2,1.6,2.4,3.2,3.7,4.7c0.6-0.6,1.9-1.2,2.6-2c1-1.2,0-3.2-1.8-2.5C24.4,52.7,23.5,51.6,22.9,51.4z
			 M60.8,56.1c0.2-0.8-0.2-1.4-0.6-1.8c-0.5-0.5-1.7-1.4-2.1-1.8c-1.3,1.5-2.7,2.9-4,4.4c0.4,0.2,0.6,0.6,1,0.8
			c0.1-0.2,0.5-0.4,0.8-0.8c0.3-0.3,0.6-0.9,0.8-0.9c0.2,0,0.2,0.4,0.4,0.5c-0.3,0.8-0.5,1.7-0.7,2.5c0.5,0.3,0.8,0.7,1.2,1
			c0.2-0.9,0.3-1.9,0.6-2.8C59.4,57.8,60.6,56.9,60.8,56.1z M35.3,53.5c0.6,0.4,1.3,0.7,1.9,1.1c0,2.2,0,4.4,0,6.6
			c-2.7-1.4-5.2-2.9-7.9-4.4c0,0.7,0,1.5,0,2.2c2.6,1.5,5.3,2.9,7.9,4.5c0,2.2,0,4.3,0,6.5c-2.7-1.4-5.2-3-7.9-4.3
			c0,0.7,0,1.4,0,2.2c2.6,1.6,5.3,2.9,7.9,4.5c0,2.2,0,4.4,0,6.6c-2.6-1.5-5.2-3-7.9-4.4c0,0.7,0,1.5,0,2.2c2.6,1.5,5.3,2.9,7.9,4.5
			c0,2.2,0,4.4,0,6.6c-2.6-1.5-5.2-3-7.9-4.4c0,0.7,0,1.5,0,2.2c2.6,1.5,5.3,2.9,7.9,4.5c0,2.2,0,4.4,0,6.6
			c-3.1-1.7-6.1-2.4-9.2-4.1c0-11.8,0-24.8,0-36.6c-3.9,2-7.2,5.3-9.4,9.3c-2.2,4-3.3,9.9-1.9,15.7c1.2,4.9,3.7,8.8,7.2,11.7
			c3.4,2.9,7.8,5,13.3,5.6c0-0.5,0-1,0-1.5c0.2,0.1,0.5,0.2,0.7,0.4c0.2,0.1,0.5,0.4,0.6,0.2c0.1-2.1,0.1-4.4,0.1-6.6
			c-0.4-0.2-0.9-0.4-1.3-0.8c0-0.7,0-1.4,0-2.1c0.5,0.2,0.8,0.5,1.3,0.6c0-2.2,0-4.4,0-6.6c-0.4-0.3-0.9-0.5-1.3-0.8
			c0-0.7,0-1.4,0-2.1c0.4,0.2,0.8,0.5,1.3,0.6c0-2.2,0-4.4,0-6.6c-0.4-0.3-0.9-0.5-1.3-0.8c0-0.7,0-1.4,0-2.1
			c0.5,0.2,0.8,0.5,1.3,0.6c0-2.2,0-4.4,0-6.6c-0.4-0.2-0.9-0.5-1.3-0.8c0-0.7,0-1.4,0-2.1c0.5,0.2,0.8,0.5,1.3,0.6
			c0-2.2,0-4.4,0-6.6c-0.4-0.3-0.9-0.5-1.3-0.8c-0.1-0.4,0.2-1.1-0.1-1.3C36.6,53.3,35.8,53.3,35.3,53.5z M39.9,55.4
			c0,2.2,0,4.4,0,6.6c0.5-0.1,0.9-0.6,1.3-0.6c0,0.7,0,1.4,0,2.1c-0.5,0.2-0.9,0.5-1.3,0.7c0,2.2,0,4.4,0,6.6
			c0.5-0.1,0.9-0.6,1.3-0.6c0,0.7,0,1.4,0,2.1c-0.5,0.2-0.8,0.5-1.3,0.7c0,2.2,0,4.4,0,6.6c0.3,0,0.9-0.6,1.3-0.6c0,0.7,0,1.4,0,2.1
			c-0.4,0.2-0.8,0.5-1.3,0.7c0,2.2,0,4.4,0,6.6c0.4,0,0.9-0.6,1.3-0.6c0,0.7,0,1.4,0,2.1c-0.5,0.2-0.9,0.5-1.3,0.7
			c0,2.2,0,4.5,0,6.7c0.5-0.1,0.9-0.6,1.3-0.6c0,0.5,0,1,0,1.5c5.5-0.5,9.8-2.7,13.3-5.6c3.4-2.9,6-6.7,7.2-11.6
			c0.7-2.7,0.8-5.9,0.5-8.6c-0.4-2.7-1.3-5.1-2.3-7.1c-2.1-4.2-5.4-7.3-9.4-9.4c0,11.9,0,24.8,0,36.7c-2.7,1.4-5.4,2-8,3.5
			c-0.4,0.2-0.8,0.4-1.2,0.5c0-2.2,0-4.4,0-6.6c2.7-1.4,5.2-2.9,7.9-4.4c0-0.7,0-1.5,0-2.2c-2.6,1.4-5.3,3.1-7.9,4.3
			c0-2.2,0-4.4,0-6.6c2.6-1.4,5.2-2.9,7.9-4.4c0-0.7,0-1.5,0-2.2c-2.7,1.4-5.2,3-7.9,4.3c0-2.2,0-4.4,0-6.6c2.6-1.5,5.2-2.9,7.9-4.4
			c0-0.7,0-1.5,0-2.2c-2.3,1.2-4.7,2.6-6.9,3.8c-0.3,0.2-0.6,0.5-1,0.5c0-2.2,0-4.3,0-6.5c2-1.1,4-2.2,5.9-3.3
			c0.7-0.4,1.4-0.7,1.9-1.2c0-0.7,0-1.4,0-2.1c-2.2,1.1-4.7,2.6-6.9,3.8c-0.3,0.2-0.6,0.4-1,0.5c0-2.2,0-4.3,0-6.5
			c0.6-0.4,1.4-0.7,2-1.2c-0.7-0.1-1.3-0.2-2-0.2c0,0.4,0,0.9,0,1.3C40.8,54.9,40.3,55.1,39.9,55.4z M13.8,60.2c-0.1,1.8,2,4,4.3,3
			c0.9-0.4,1.9-1.4,2.1-2.4c0.6-2.4-1.6-4.1-3.8-3.8C15.1,57.3,13.9,58.7,13.8,60.2z M63.8,58.3c-1.7,1.1-3.3,2.2-5,3.2
			c0.2,0.4,0.5,0.7,0.7,1.1c0.7-0.4,1.3-0.9,2-1.2c0.5,0.7,0.9,1.4,1.4,2c0.3-0.3,0.7-0.4,1-0.7c-0.5-0.6-0.9-1.3-1.3-2
			c0.3-0.2,0.6-0.4,0.9-0.6c0.5,0.7,1,1.4,1.5,2.2c0.4-0.2,0.8-0.4,1.1-0.7C65.2,60.5,64.5,59.4,63.8,58.3z M11.3,64.7
			c-0.9,0.8-1,2.6-1.4,3.6c2,0.5,3.8,1.2,5.7,1.7c0.1-0.5,0.3-0.8,0.4-1.3c-0.8-0.2-1.5-0.4-2.2-0.7c0-0.2,0.1-0.4,0.2-0.5
			c0.8-0.2,1.7-0.3,2.6-0.5c0.1-0.5,0.3-1,0.5-1.5c-1,0.2-1.9,0.5-2.9,0.6C14.4,64.5,12.3,63.9,11.3,64.7z M67.5,64.9
			c-1.9,0.6-3.9,1.1-5.7,1.8c0.4,1.3,0.8,2.6,1.2,3.9c0.4-0.1,0.8-0.2,1.2-0.4c-0.2-1-0.6-1.8-0.8-2.8c0.4-0.1,0.7-0.2,1.1-0.3
			c0.2,0.8,0.5,1.6,0.7,2.4c0.4-0.1,0.9-0.2,1.2-0.4c-0.3-0.7-0.5-1.6-0.8-2.3c0.3-0.1,0.7-0.2,1.1-0.3c0.2,0.9,0.5,1.7,0.8,2.5
			c0.4,0,0.8-0.2,1.2-0.3C68.4,67.4,67.9,66.2,67.5,64.9z M12.2,72c-0.6-0.6-2.1-0.6-2.7,0.1C8.8,73,9.1,74.5,8.9,76
			c2,0.1,4.1,0.1,6,0.2c0-0.4,0-0.9,0-1.3c-0.8,0-1.6,0-2.3-0.1C12.7,73.6,12.8,72.6,12.2,72z M63.5,72.7c0,0.4,0,0.9,0,1.3
			c0.8,0.1,1.7-0.2,2.4,0c0,0.2,0,0.3,0,0.5c-0.7,0.5-1.7,0.8-2.3,1.4c0.1,0.5,0,1,0.1,1.5c0.8-0.5,1.6-1,2.4-1.5
			c0.2,1.4,2.6,1.5,3.2,0.4c0.5-1,0.1-2.5,0.2-3.8C67.4,72.6,65.4,72.6,63.5,72.7z M66.1,82.8c2-0.1,1.7-3.2-0.4-2.9
			C63.8,80.1,64.2,82.9,66.1,82.8z M11.1,82c0.4,1.5,3,1.3,3-0.5c0-1-0.9-1.6-1.9-1.4C11.3,80.3,10.7,81,11.1,82z M59.8,88.8
			c0.4,0.2,0.7,0.4,1.1,0.5c0.3-0.5,0.5-1.1,0.8-1.5c1.4,0.7,2.8,1.4,4.3,2.1c0.1-0.4,0.4-0.8,0.6-1.2c-1.4-0.7-2.9-1.4-4.3-2.2
			c0.2-0.5,0.5-1,0.8-1.5c-0.4-0.2-0.7-0.4-1.1-0.5C61.3,86.1,60.4,87.4,59.8,88.8z M15.5,85c-0.7,0.1-1.4,0.6-1.5,1.2
			c-0.2,1,0.6,2.6-0.4,2.6c-0.7,0-1-1.2-0.7-1.9c-0.5-0.1-0.8-0.3-1.3-0.4c-0.3,1.3,0.1,2.5,0.9,3.1c1.1,0.9,2.9,0.2,3-1.2
			c0-0.5-0.5-1.8,0.1-2.1c0.8-0.4,1.3,0.9,1.1,1.5c0.4,0.1,0.8,0.3,1.3,0.4C18.1,86.5,17.2,84.9,15.5,85z M58.8,90.2
			c-0.2,0.4-0.7,0.6-0.9,1c0.5,0.5,1.1,0.9,1.5,1.5c-0.6,0.6-1.1,1.2-1.7,1.7c-0.6-0.4-1-1-1.6-1.4c-0.3,0.3-0.6,0.6-0.9,0.9
			c1.5,1.3,2.9,2.8,4.5,4c0.2-0.4,0.6-0.6,0.8-1c-0.6-0.6-1.3-1.1-1.8-1.8c0.6-0.5,1.1-1.2,1.7-1.7c0.7,0.5,1.2,1.2,1.9,1.7
			c0.3-0.3,0.6-0.7,0.9-1C61.7,92.9,60.3,91.5,58.8,90.2z M20.7,91.3c-2,0.7-4,1.3-6.1,1.9c0,0.2,0.2,0.4,0.4,0.6
			c0.2,0.2,0.3,0.4,0.5,0.6c0.4-0.2,0.9-0.3,1.3-0.5c0.4,0.6,1,1.1,1.5,1.8c-0.2,0.4-0.4,0.8-0.6,1.2c0.4,0.3,0.6,0.8,1.1,1.1
			c0.9-1.9,1.9-3.8,2.8-5.7C21.2,91.8,21,91.4,20.7,91.3z M50.2,98.2c-0.2,2.1,1.5,3.6,3.2,3.6c1.4,0,2.8-0.9,3-2.5
			c-0.4,0-0.9-0.1-1.3-0.1c-0.4,2.2-3.6,1.4-3.5-0.8c0-0.9,1-1.8,2.1-1.5c0.2-0.4,0.3-0.8,0.5-1.3C52.2,95.2,50.4,96.6,50.2,98.2z
			 M26,95.8c-1.3,0.9-2.7,1.9-3.9,2.8c-0.4,0.3-1,0.5-1.3,0.9c0.4,0.2,0.8,0.4,1.2,0.7c0.5-0.2,0.7-0.6,1.2-0.8
			c0.7,0.4,1.3,0.8,1.9,1.2c-0.1,0.4-0.2,0.9-0.2,1.3c0.5,0.2,0.9,0.7,1.3,0.7c0.2-2.2,0.6-4.1,0.8-6.3C26.7,96.2,26.4,96,26,95.8z
			 M29.6,97.9c-0.1,0.4-0.2,0.7-0.3,1.1c0.5,0.2,1.1,0.3,1.6,0.5c-0.4,1.5-0.9,3-1.3,4.5c0.4,0.1,0.8,0.3,1.3,0.3
			c0.5-1.5,0.8-3.1,1.4-4.5c0.5,0.2,1,0.3,1.6,0.5c0.1-0.4,0.3-0.7,0.3-1.2C32.6,98.8,31.2,98.2,29.6,97.9z M46.1,98.6
			c0.2,0.6,0.3,1.2,0.5,1.9c0.2,0.7,0.5,1.4,0.5,2c-0.1,0.7-0.7,1.2-1.4,1.1c-1-0.1-1.1-1.5-1.3-2.5c-0.2-0.7-0.3-1.3-0.5-1.9
			c-0.5,0.1-0.9,0.2-1.3,0.3c0.6,1.7,0.5,4.6,2.2,5.2c1.1,0.4,2.7-0.1,3.3-0.8c0.8-1,0.2-2.5-0.1-3.7c-0.1-0.3-0.2-0.7-0.2-1
			c-0.1-0.3-0.1-0.7-0.3-0.9C46.9,98.4,46.6,98.6,46.1,98.6z M35.9,100.6c0.9,0.1,1.9,0.1,2.9,0.1c-0.7,0.8-1.6,1.7-2.3,2.6
			c-0.3,0.3-0.7,0.6-0.8,0.9c-0.1,0.4,0.1,0.7-0.1,1.1c1.5,0.1,3.2,0.1,4.7,0.2c0.1-0.4,0.1-0.8,0.1-1.2c-1-0.1-2-0.1-3.1-0.1
			c0.7-0.8,1.6-1.7,2.3-2.6c0.2-0.3,0.7-0.6,0.8-0.9c0.1-0.4-0.1-0.7,0.1-1.1c-1.5,0-3.1-0.1-4.6-0.2
			C35.9,99.9,35.9,100.3,35.9,100.6z"/>
		<path class="st0" d="M41.4,50.8c0.1-1.2,0.4-2.2,0.5-3.4c1.2,0.1,2.5,0.5,2.6,1.5C44.6,50.5,43.3,51.3,41.4,50.8z"/>
		<path class="st0" d="M50.7,49.8c1-0.2,2.2,0.5,2.2,1.6c0,1-0.7,1.8-1.3,2c-0.8,0.2-1.8-0.1-2.2-0.6C48.7,51.8,49.3,50.1,50.7,49.8
			z"/>
		<path class="st0" d="M21.7,54.5c-0.2-0.3-0.4-0.6-0.7-0.9c0.3-0.6,1.8-1.3,1.9-0.3C22.9,54,22.1,54.2,21.7,54.5z"/>
		<path class="st0" d="M57.5,55.2c0.2-0.4,0.6-0.5,0.8-0.9c0.3,0.1,1.1,0.8,1.2,1.2c0,0.3-0.1,0.6-0.5,0.7
			C58.2,56.3,58,55.4,57.5,55.2z"/>
		<path class="st0" d="M23.2,56.4c-0.2-0.4-0.5-0.7-0.8-1c0.2-0.4,2.3-1.7,2.1-0.2C24.5,55.8,23.6,56,23.2,56.4z"/>
		<path class="st0" d="M16.6,58.4c1.3-0.3,2.8,0.8,2.3,2.4c-0.2,0.8-1.1,1.3-1.9,1.2c-0.8-0.1-1.7-0.8-1.8-1.6
			C15,59.5,15.5,58.6,16.6,58.4z"/>
		<path class="st0" d="M12.7,67.7c-0.4-0.1-0.9-0.2-1.3-0.4c0.2-0.7,0.6-2.1,1.6-1.3C13.2,66.6,12.8,67.1,12.7,67.7z"/>
		<path class="st0" d="M11.5,74.8c-0.4,0-0.9-0.1-1.4-0.1c0-0.6,0-1.2,0.3-1.6C11.4,72.6,11.7,73.7,11.5,74.8z"/>
		<path class="st0" d="M67.1,73.9c0.4,0,0.9,0,1.3,0c0.1,0.9,0.1,1.9-0.7,1.8C66.9,75.6,67.1,74.8,67.1,73.9z"/>
		<path class="st0" d="M18.8,94.5c-0.3-0.3-0.6-0.7-0.9-1c0.5-0.3,1.1-0.4,1.6-0.6c0.1,0,0.1,0,0.1,0.1
			C19.4,93.4,19.1,93.9,18.8,94.5z"/>
		<path class="st0" d="M25.5,97.6C25.6,97.6,25.6,97.7,25.5,97.6c0,0.7-0.2,1.1-0.2,1.8c-0.5-0.1-0.8-0.5-1.2-0.6
			C24.5,98.3,25,98,25.5,97.6z"/>
	</g>
</g>
<g>
	<path class="st1" d="M96.4,61.1c-0.2,0-0.7,0-1.3,0v9.4h-8.4V39.8c2.8-0.1,5.9-0.2,9.3-0.2c8.2,0,12.7,3.5,12.7,10.2
		C108.6,55.8,104.7,61.1,96.4,61.1z M96,46.5c-0.1,0-0.5,0-0.8,0V54c0.3,0,0.5,0,0.6,0c2.2,0,4.1-1.4,4.1-3.9
		C99.9,48.1,98.9,46.5,96,46.5z"/>
	<path class="st1" d="M125.8,70.5l-5.8-11.2h-0.3v11.2h-8.4V39.8c2.9-0.2,6.6-0.2,10.5-0.2c7.8,0,12.2,2.8,12.2,9.6
		c0,3.6-2,7.1-5.6,8.4c0.8,1.2,1.5,2.4,2.2,3.5l5.5,9.3H125.8z M121.3,46.6c-0.5,0-1.3,0-1.6,0.1v6.6c0.3,0,1,0.1,1.4,0.1
		c2.3,0,3.9-1.2,3.9-3.5C125.1,48,124.1,46.6,121.3,46.6z"/>
	<path class="st1" d="M150.6,71.1c-9.6,0-14.3-5.8-14.3-15.5c0-9.9,7-16.4,15.6-16.4c8,0,14.3,4.3,14.3,15.4
		C166.1,64.6,159.3,71.1,150.6,71.1z M151.1,46.9c-2.9,0-5.9,2.3-5.9,8c0,5.2,1.7,8.4,5.8,8.4c2.6,0,6.2-1.8,6.2-8.3
		C157.1,49.7,155.2,46.9,151.1,46.9z"/>
	<path class="st1" d="M179.8,70.6c-1.9,0-5.4-0.1-10.6-0.1V39.9c3.1-0.2,8.4-0.3,12.2-0.3c6.6,0,10.9,2.5,10.9,7.9
		c0,2.7-1.6,5.2-3.9,6.4V54c2.6,0.9,4.4,3.7,4.4,6.6C192.8,66.2,188.6,70.6,179.8,70.6z M180.1,46.4c-1,0-1.7,0-2.4,0.1v5.2
		c0.5,0,1.1,0,1.8,0c2.6,0,3.9-1.1,3.9-2.9C183.3,47.2,182.1,46.4,180.1,46.4z M179.9,57.9c-0.3,0-1.7,0-2.2,0v5.6
		c0.5,0,1.5,0.1,2.2,0.1c2.3,0,3.8-1,3.8-2.9C183.7,59.2,182.5,57.9,179.9,57.9z"/>
	<path class="st1" d="M202.5,71.1c-2.1,0-4.3-0.2-6.3-0.6l0.5-7.7c1.7,0.6,4.2,1.1,6.5,1.1c2,0,3.4-0.9,3.4-2.3
		c0-4.4-11.4-1.8-11.4-12.3c0-6.1,4.7-10,12.7-10c1.5,0,3.7,0.2,5.6,0.5l-0.5,7.3c-1.8-0.5-3.6-0.8-5.4-0.8c-2.4,0-3.4,1-3.4,2.1
		c0,3.9,11.4,2.4,11.4,11.9C215.6,66.4,210.7,71.1,202.5,71.1z"/>
	<path class="st1" d="M231,47.1v23.4h-8.4V47.1h-6.6v-7.3h21.7v7.3H231z"/>
	<path class="st1" d="M249.6,70.7c-3.3,0-6.6-0.1-9.7-0.3V39.9c2.4-0.1,6.6-0.3,11-0.3c8.9,0,15.2,3.7,15.2,14.7
		C266.1,64.9,259.5,70.7,249.6,70.7z M250.4,46.8c-1,0-1.5,0-2.1,0.1v16.4c0.4,0.1,1,0.1,1.9,0.1c3.8,0,6.7-2.6,6.7-8.3
		C257,50.3,256,46.8,250.4,46.8z"/>
	<path class="st1" d="M282.5,71.1c-9.6,0-14.3-5.8-14.3-15.5c0-9.9,7-16.4,15.6-16.4c8,0,14.3,4.3,14.3,15.4
		C298,64.6,291.2,71.1,282.5,71.1z M283.1,46.9c-2.9,0-5.9,2.3-5.9,8c0,5.2,1.7,8.4,5.8,8.4c2.6,0,6.2-1.8,6.2-8.3
		C289.1,49.7,287.1,46.9,283.1,46.9z"/>
	<path class="st1" d="M315.7,70.5l-5.8-11.2h-0.3v11.2h-8.4V39.8c2.9-0.2,6.6-0.2,10.5-0.2c7.8,0,12.2,2.8,12.2,9.6
		c0,3.6-2,7.1-5.6,8.4c0.8,1.2,1.5,2.4,2.2,3.5l5.5,9.3H315.7z M311.2,46.6c-0.5,0-1.3,0-1.6,0.1v6.6c0.3,0,1,0.1,1.4,0.1
		c2.3,0,3.9-1.2,3.9-3.5C314.9,48,314,46.6,311.2,46.6z"/>
	<path class="st1" d="M336.2,47.1V52h8.5V59h-8.5v11.5h-8.4V39.8h17.5v7.3H336.2z"/>
	<path class="st1" d="M348.6,70.5V39.8h17.9V47h-9.5v4.3h9v6.9h-9v4.9h9.5v7.3H348.6z"/>
	<path class="st1" d="M384.9,70.5l-5.8-11.2h-0.3v11.2h-8.4V39.8c2.9-0.2,6.6-0.2,10.5-0.2c7.8,0,12.2,2.8,12.2,9.6
		c0,3.6-2,7.1-5.6,8.4c0.8,1.2,1.5,2.4,2.2,3.5l5.5,9.3H384.9z M380.4,46.6c-0.5,0-1.3,0-1.6,0.1v6.6c0.3,0,1,0.1,1.4,0.1
		c2.3,0,3.9-1.2,3.9-3.5C384.1,48,383.2,46.6,380.4,46.6z"/>
</g>
<linearGradient id="SVGID_1_" gradientUnits="userSpaceOnUse" x1="0" y1="22.5383" x2="398.3877" y2="22.5383">
	<stop  offset="0" style="stop-color:#FFFFFF;stop-opacity:0"/>
	<stop  offset="7.786566e-02" style="stop-color:#C2E2D2;stop-opacity:0.1557"/>
	<stop  offset="0.1619" style="stop-color:#88C6A7;stop-opacity:0.3239"/>
	<stop  offset="0.2433" style="stop-color:#57AF83;stop-opacity:0.4866"/>
	<stop  offset="0.3198" style="stop-color:#319D67;stop-opacity:0.6395"/>
	<stop  offset="0.3902" style="stop-color:#169052;stop-opacity:0.7804"/>
	<stop  offset="0.4525" style="stop-color:#068846;stop-opacity:0.905"/>
	<stop  offset="0.5" style="stop-color:#008542"/>
	<stop  offset="0.5475" style="stop-color:#068846;stop-opacity:0.905"/>
	<stop  offset="0.6098" style="stop-color:#169052;stop-opacity:0.7804"/>
	<stop  offset="0.6802" style="stop-color:#319D67;stop-opacity:0.6395"/>
	<stop  offset="0.7567" style="stop-color:#57AF83;stop-opacity:0.4866"/>
	<stop  offset="0.8381" style="stop-color:#88C6A7;stop-opacity:0.3239"/>
	<stop  offset="0.9221" style="stop-color:#C2E2D2;stop-opacity:0.1557"/>
	<stop  offset="1" style="stop-color:#FFFFFF;stop-opacity:0"/>
</linearGradient>
<polygon class="st2" points="398.4,23.2 0,23.2 0,21.8 398.4,21.8 398.4,23.2 "/>
<linearGradient id="SVGID_2_" gradientUnits="userSpaceOnUse" x1="0" y1="122.0142" x2="398.3877" y2="122.0142">
	<stop  offset="0" style="stop-color:#FFFFFF;stop-opacity:0"/>
	<stop  offset="7.786566e-02" style="stop-color:#C2E2D2;stop-opacity:0.1557"/>
	<stop  offset="0.1619" style="stop-color:#88C6A7;stop-opacity:0.3239"/>
	<stop  offset="0.2433" style="stop-color:#57AF83;stop-opacity:0.4866"/>
	<stop  offset="0.3198" style="stop-color:#319D67;stop-opacity:0.6395"/>
	<stop  offset="0.3902" style="stop-color:#169052;stop-opacity:0.7804"/>
	<stop  offset="0.4525" style="stop-color:#068846;stop-opacity:0.905"/>
	<stop  offset="0.5" style="stop-color:#008542"/>
	<stop  offset="0.5475" style="stop-color:#068846;stop-opacity:0.905"/>
	<stop  offset="0.6098" style="stop-color:#169052;stop-opacity:0.7804"/>
	<stop  offset="0.6802" style="stop-color:#319D67;stop-opacity:0.6395"/>
	<stop  offset="0.7567" style="stop-color:#57AF83;stop-opacity:0.4866"/>
	<stop  offset="0.8381" style="stop-color:#88C6A7;stop-opacity:0.3239"/>
	<stop  offset="0.9221" style="stop-color:#C2E2D2;stop-opacity:0.1557"/>
	<stop  offset="1" style="stop-color:#FFFFFF;stop-opacity:0"/>
</linearGradient>
<polygon class="st3" points="398.4,122.7 0,122.7 0,121.3 398.4,121.3 398.4,122.7 "/>
<g>
	<path class="st1" d="M131.3,110.9c-2.3,0-4.5-0.3-6.2-0.8l0.2-2.9c1.8,0.6,4.1,1.1,6.3,1.1c4.1,0,7.7-1.7,7.7-6.1
		c0-7.6-14.5-4.9-14.5-14.4c0-4.8,3.9-8.3,10.4-8.3c2,0,3.7,0.2,5.5,0.5l-0.2,2.7c-1.7-0.5-3.7-0.9-5.5-0.9c-4.7,0-7.2,2.2-7.2,5.6
		c0,7.4,14.6,4.7,14.6,14.3C142.2,107.2,138,110.9,131.3,110.9z"/>
	<path class="st1" d="M167.8,110.5l-2.8-7.8H151l-2.9,7.8h-3l11.5-30.6h3.1l11.5,30.6H167.8z M159.4,87.4c-0.6-1.5-1-2.9-1.4-4.4h0
		c-0.4,1.5-0.9,2.9-1.4,4.3l-4.8,13.1h12.4L159.4,87.4z"/>
	<path class="st1" d="M195.6,110.5l-2.8-7.8h-14.1l-2.9,7.8h-3l11.5-30.6h3.1l11.5,30.6H195.6z M187.1,87.4c-0.6-1.5-1-2.9-1.4-4.4
		h0c-0.4,1.5-0.9,2.9-1.4,4.3l-4.8,13.1h12.4L187.1,87.4z"/>
	<path class="st1" d="M209.4,82.3v28.2h-2.9V82.3H197v-2.4h21.9v2.4H209.4z"/>
	<path class="st1" d="M221.2,110.5v-2l14.1-21.8c1-1.5,1.9-2.8,2.9-4.3c-1.8,0-4.3,0.1-7.5,0.1h-9v-2.6h19.7V82l-14.9,22.9
		c-0.7,1-1.3,2-2,3.1c1.1-0.1,4.2-0.1,8.3-0.1h8.8v2.6H221.2z"/>
	<path class="st1" d="M258.6,110.9c-9.4,0-11.2-5.3-11.2-10.4V79.9h2.9v20.2c0,4.5,1.5,8.4,8.5,8.4c5.9,0,8.8-2.4,8.8-9.3V79.9h2.9
		V99C270.5,106.7,266.5,110.9,258.6,110.9z"/>
	<path class="st1" d="M290.9,110.9c-9.2,0-13.7-5.7-13.7-15c0-9.1,4.3-16.2,14.7-16.2c2.4,0,4.9,0.4,7.2,1l-0.3,2.7
		c-2.6-0.9-5-1.2-7.5-1.2c-7.8,0-11,6.1-11,13.3c0,8.2,3.6,13,11.4,13c2.5,0,5.5-0.8,7.5-1.8l0.3,2.6
		C297.2,110.2,294.2,110.9,290.9,110.9z"/>
	<path class="st1" d="M327.3,110.5V95.9h-17.5v14.7h-2.9V79.9h2.9v13.5h17.5V79.9h2.9v30.6H327.3z"/>
	<path class="st1" d="M347.3,82.3v28.2h-2.9V82.3h-9.5v-2.4h21.9v2.4H347.3z"/>
</g>
<g>
	<g>
		<path class="st4" d="M220.6,23.9c0,2.5-2,4.6-4.6,4.6h-33.6c-2.5,0-4.6-2.1-4.6-4.6V5.4c0-2.5,2.1-4.6,4.6-4.6H216
			c2.5,0,4.6,2.1,4.6,4.6V23.9z"/>
		<path class="st5" d="M216,29.3h-33.6c-3,0-5.4-2.4-5.4-5.4V5.4c0-3,2.4-5.4,5.4-5.4H216c3,0,5.4,2.4,5.4,5.4v18.5
			C221.4,26.9,219,29.3,216,29.3L216,29.3z M182.4,1.6c-2.1,0-3.8,1.7-3.8,3.8v18.5c0,2.1,1.7,3.8,3.8,3.8H216
			c2.1,0,3.8-1.7,3.8-3.8V5.4c0-2.1-1.7-3.8-3.8-3.8H182.4L182.4,1.6z"/>
	</g>
	<g>
		<path class="st5" d="M186,10.7v3.6h4.3v2.2H186v5.9h-2.6v-14h7.1v2.3H186z"/>
		<path class="st5" d="M193.2,20.9c0,0.9-0.7,1.7-1.6,1.7c-0.9,0-1.6-0.8-1.6-1.7c0-0.9,0.7-1.7,1.6-1.7
			C192.5,19.2,193.2,20,193.2,20.9z"/>
		<path class="st5" d="M207.8,22.4l-0.9-6.7c-0.2-1.3-0.3-2.4-0.4-3.3h0c-0.2,0.9-0.4,1.9-0.7,3l-2.1,7H201l-2-6.5
			c-0.4-1.1-0.7-2.4-0.9-3.5h0c-0.1,1.2-0.2,2.3-0.4,3.6l-0.8,6.5h-2.6l2.1-14h3l2.2,7.2c0.3,1,0.5,2,0.7,2.9h0
			c0.2-1.1,0.4-1.9,0.7-2.9l2.3-7.2h3l2.1,14H207.8z"/>
		<path class="st5" d="M215,20.9c0,0.9-0.7,1.7-1.6,1.7c-0.9,0-1.6-0.8-1.6-1.7c0-0.9,0.7-1.7,1.6-1.7C214.3,19.2,215,20,215,20.9z"
			/>
	</g>
</g>
</svg>
